<?xml version="1.0" encoding="UTF-8" standalone="no"?>
<!-- Generator: Adobe Illustrator 15.0.2, SVG Export Plug-In . SVG Version: 6.00 Build 0)  -->

<svg
   xmlns:dc="http://purl.org/dc/elements/1.1/"
   xmlns:cc="http://creativecommons.org/ns#"
   xmlns:rdf="http://www.w3.org/1999/02/22-rdf-syntax-ns#"
   xmlns:svg="http://www.w3.org/2000/svg"
   xmlns="http://www.w3.org/2000/svg"
   xmlns:sodipodi="http://sodipodi.sourceforge.net/DTD/sodipodi-0.dtd"
   xmlns:inkscape="http://www.inkscape.org/namespaces/inkscape"
   version="1.1"
   id="Layer_1"
   x="0px"
   y="0px"
   width="90"
   height="90"
   viewBox="0 0 89.999998 89.999996"
   enable-background="new 0 0 841.89 595.28"
   xml:space="preserve"
   inkscape:version="0.91 r13725"
   sodipodi:docname="20-sim Icon.svg"><metadata
     id="metadata28"><rdf:RDF><cc:Work
         rdf:about=""><dc:format>image/svg+xml</dc:format><dc:type
           rdf:resource="http://purl.org/dc/dcmitype/StillImage" /><dc:title></dc:title></cc:Work></rdf:RDF></metadata><defs
     id="defs26" /><sodipodi:namedview
     pagecolor="#ffffff"
     bordercolor="#666666"
     borderopacity="1"
     objecttolerance="10"
     gridtolerance="10"
     guidetolerance="10"
     inkscape:pageopacity="0"
     inkscape:pageshadow="2"
     inkscape:window-width="780"
     inkscape:window-height="480"
     id="namedview24"
     showgrid="false"
     inkscape:zoom="1.9351388"
     inkscape:cx="37.318822"
     inkscape:cy="51.065858"
     inkscape:window-x="0"
     inkscape:window-y="0"
     inkscape:window-maximized="0"
     inkscape:current-layer="Layer_1" /><path
     d="m 0.96304549,62.907105 0,26.737001 87.99999951,0 0,-27.254001 c -13.456,2.71 -28.904,4.252 -45.334,4.252 -15.355,0 -29.850999,-1.347 -42.66599951,-3.735 z"
     id="path3"
     inkscape:connector-curvature="0"
     style="fill:#78ae40" /><linearGradient
     id="SVGID_1_"
     gradientUnits="userSpaceOnUse"
     x1="47.402802"
     y1="491.50101"
     x2="47.402802"
     y2="566.14673"
     gradientTransform="matrix(-1,0,0,-1,92.365045,588.97811)"><stop
       offset="0"
       style="stop-color:#FFFFFF"
       id="stop6" /><stop
       offset="1"
       style="stop-color:#78AE40"
       id="stop8" /></linearGradient><path
     d="m 0.96304549,1.6441048 0,61.2630002 c 12.81500051,2.389 27.31199951,3.735 42.66599951,3.735 16.43,0 31.878,-1.542 45.334,-4.252 l 0,-60.7460002 -87.99999951,0 z"
     id="path10"
     inkscape:connector-curvature="0"
     style="fill:url(#SVGID_1_)" /><g
     id="g12"
     transform="translate(-375.63496,-251.68989)"><path
       d="m 450.498,331.254 4.678,0 0,-10.81 c 0,-1.25 -0.43,-2.333 -1.289,-3.247 -0.951,-1.009 -2.361,-1.513 -4.229,-1.513 l -26.911,0 0,15.569 4.677,0 0,-11.677 9.131,0 0,11.677 4.675,0 0,-11.677 7.646,0 c 1.082,0 1.623,0.54 1.623,1.624 l 0,10.054 z"
       id="path14"
       inkscape:connector-curvature="0"
       style="fill:#ffffff" /><rect
       x="413.39401"
       y="315.685"
       width="4.677"
       height="15.569"
       id="rect16"
       style="fill:#ffffff" /><path
       d="m 404.042,325.233 c 1.026,0 1.54,0.393 1.54,1.177 0,0.802 -0.513,1.204 -1.54,1.204 l -19.742,-0.029 0,3.669 20.666,0 c 1.046,0 1.922,-0.196 2.632,-0.587 1.512,-0.822 2.269,-2.214 2.269,-4.174 0,-1.455 -0.453,-2.614 -1.358,-3.472 -0.906,-0.859 -2.086,-1.288 -3.542,-1.288 l -14.842,-0.028 c -1.028,0 -1.541,-0.393 -1.541,-1.178 0,-0.783 0.513,-1.174 1.541,-1.174 l 18.902,0 0,-3.669 -19.827,0 c -1.027,0 -1.904,0.205 -2.632,0.615 -1.514,0.859 -2.269,2.25 -2.269,4.173 0,1.456 0.452,2.608 1.358,3.459 0.904,0.85 2.085,1.273 3.542,1.273 l 14.843,0.029 z"
       id="path18"
       inkscape:connector-curvature="0"
       style="fill:#ffffff" /><path
       d="m 447.057,296.922 c -1.129,-1.13 -2.497,-1.693 -4.102,-1.693 l -15.011,0 c -1.586,0 -2.95,0.563 -4.088,1.693 -1.14,1.131 -1.71,2.497 -1.71,4.102 l 0,4.537 c 0,1.588 0.57,2.951 1.71,4.089 1.138,1.14 2.502,1.709 4.088,1.709 l 15.011,0 c 1.604,0 2.973,-0.569 4.102,-1.709 1.13,-1.138 1.693,-2.501 1.693,-4.089 l 0,-4.537 c 0,-1.605 -0.563,-2.971 -1.693,-4.102 z m -3.347,8.192 c 0,0.652 -0.233,1.213 -0.7,1.679 -0.467,0.468 -1.025,0.7 -1.68,0.7 l -11.986,0 c -0.652,0 -1.213,-0.232 -1.68,-0.7 -0.466,-0.466 -0.699,-1.026 -0.699,-1.679 l 0,-3.866 c 0,-0.652 0.233,-1.212 0.699,-1.68 0.467,-0.467 1.027,-0.701 1.68,-0.701 l 11.986,0 c 0.654,0 1.213,0.234 1.68,0.701 0.467,0.468 0.7,1.027 0.7,1.68 l 0,3.866 z"
       id="path20"
       inkscape:connector-curvature="0" /><path
       d="m 398.709,305.31 c -1.046,0 -1.569,0.393 -1.569,1.177 0,0.802 0.523,1.204 1.569,1.204 l 19.714,-0.029 0,3.669 -25.567,0 0,-4.761 c 0,-1.455 0.453,-2.614 1.358,-3.472 0.905,-0.859 2.086,-1.288 3.542,-1.288 l 14.842,-0.028 c 1.027,0 1.54,-0.393 1.54,-1.178 0,-0.783 -0.513,-1.174 -1.54,-1.174 l -18.874,-0.058 0,-3.668 19.798,0.057 c 1.026,0 1.905,0.205 2.633,0.615 1.513,0.84 2.268,2.231 2.268,4.173 0,1.456 -0.453,2.608 -1.357,3.459 -0.906,0.85 -2.086,1.273 -3.543,1.273 l -14.814,0.029"
       id="path22"
       inkscape:connector-curvature="0" /></g></svg>