<?xml version="1.0" encoding="UTF-8" standalone="no"?>
<!-- Created with Inkscape (http://www.inkscape.org/) -->

<svg
   xmlns:dc="http://purl.org/dc/elements/1.1/"
   xmlns:cc="http://creativecommons.org/ns#"
   xmlns:rdf="http://www.w3.org/1999/02/22-rdf-syntax-ns#"
   xmlns:svg="http://www.w3.org/2000/svg"
   xmlns="http://www.w3.org/2000/svg"
   xmlns:sodipodi="http://sodipodi.sourceforge.net/DTD/sodipodi-0.dtd"
   xmlns:inkscape="http://www.inkscape.org/namespaces/inkscape"
   width="100mm"
   height="75mm"
   viewBox="0 0 354.33064 265.74802"
   id="svg2"
   version="1.1"
   inkscape:version="0.48.2 r9819"
   sodipodi:docname="C:\Work\intocps-ui\dist\resources\into-cps\projbrowser\icons\multimodel-icon.svg"
   inkscape:export-filename="C:\Users\CoutoLD\Desktop\path4233.png"
   inkscape:export-xdpi="90"
   inkscape:export-ydpi="90">
  <defs
     id="defs4" />
  <sodipodi:namedview
     id="base"
     pagecolor="#ffffff"
     bordercolor="#666666"
     borderopacity="1.0"
     inkscape:pageopacity="0.0"
     inkscape:pageshadow="2"
     inkscape:zoom="2.8284272"
     inkscape:cx="174.74661"
     inkscape:cy="127.5362"
     inkscape:document-units="px"
     inkscape:current-layer="g3809"
     showgrid="true"
     inkscape:window-width="1600"
     inkscape:window-height="1147"
     inkscape:window-x="-8"
     inkscape:window-y="-8"
     inkscape:window-maximized="1">
    <inkscape:grid
       type="xygrid"
       id="grid4176" />
  </sodipodi:namedview>
  <metadata
     id="metadata7">
    <rdf:RDF>
      <cc:Work
         rdf:about="">
        <dc:format>image/svg+xml</dc:format>
        <dc:type
           rdf:resource="http://purl.org/dc/dcmitype/StillImage" />
        <dc:title></dc:title>
      </cc:Work>
    </rdf:RDF>
  </metadata>
  <g
     style="display:inline"
     inkscape:label="Layer copy"
     id="g3809"
     inkscape:groupmode="layer">
    <ellipse
       sodipodi:ry="46.467018"
       sodipodi:rx="44.446712"
       sodipodi:cy="853.38049"
       sodipodi:cx="58.2439"
       style="fill:#cdeeff;fill-opacity:1;fill-rule:evenodd;stroke:none"
       id="ellipse3811"
       cx="58.2439"
       cy="853.38049"
       rx="44.446712"
       ry="46.467018"
       d="m 102.69061,853.38049 c 0,25.66303 -19.899468,46.46702 -44.44671,46.46702 -24.547241,0 -44.446712,-20.80399 -44.446712,-46.46702 0,-25.66302 19.899471,-46.46701 44.446712,-46.46701 24.547242,0 44.44671,20.80399 44.44671,46.46701 z"
       transform="matrix(0.90029852,0,0,0.90029852,-5.5431903,-723.75008)" />
    <ellipse
       sodipodi:ry="46.467018"
       sodipodi:rx="44.446712"
       sodipodi:cy="1005.3134"
       sodipodi:cx="173.80858"
       style="fill:#cdeeff;fill-opacity:1;fill-rule:evenodd;stroke:none"
       id="ellipse3813"
       cx="173.80858"
       cy="1005.3134"
       rx="44.446712"
       ry="46.467018"
       d="m 218.25529,1005.3134 c 0,25.663 -19.89947,46.467 -44.44671,46.467 -24.54724,0 -44.44671,-20.804 -44.44671,-46.467 0,-25.66301 19.89947,-46.467 44.44671,-46.467 24.54724,0 44.44671,20.80399 44.44671,46.467 z"
       transform="matrix(0.90029852,0,0,0.90029852,-5.5431903,-723.75008)" />
    <ellipse
       sodipodi:ry="46.467018"
       sodipodi:rx="44.446712"
       sodipodi:cy="848.9765"
       sodipodi:cx="297.1716"
       style="fill:#cdeeff;fill-opacity:1;fill-rule:evenodd;stroke:none"
       id="ellipse3815"
       cx="297.1716"
       cy="848.9765"
       rx="44.446712"
       ry="46.467018"
       d="m 341.61831,848.9765 c 0,25.66303 -19.89947,46.46702 -44.44671,46.46702 -24.54724,0 -44.44671,-20.80399 -44.44671,-46.46702 0,-25.66302 19.89947,-46.46702 44.44671,-46.46702 24.54724,0 44.44671,20.804 44.44671,46.46702 z"
       transform="matrix(0.90029852,0,0,0.90029852,-5.5431903,-723.75008)" />
    <path
       style="fill:none;stroke:#cdeeff;stroke-width:20.10000038;stroke-linecap:butt;stroke-linejoin:miter;stroke-miterlimit:4;stroke-opacity:1;stroke-dasharray:none"
       d="M 25.216126,21.445936 154.35369,164.40145 256.80546,50.632976"
       id="path3817"
       inkscape:connector-curvature="0"
       sodipodi:nodetypes="ccc" />
  </g>
  <g
     inkscape:groupmode="layer"
     id="layer2"
     inkscape:label="Layer"
     style="display:inline"
     sodipodi:insensitive="true">
    <ellipse
       transform="matrix(0.90029852,0,0,0.90029852,47.45681,-700.41846)"
       d="m 102.69061,853.38049 c 0,25.66303 -19.899468,46.46702 -44.44671,46.46702 -24.547241,0 -44.446712,-20.80399 -44.446712,-46.46702 0,-25.66302 19.899471,-46.46701 44.446712,-46.46701 24.547242,0 44.44671,20.80399 44.44671,46.46701 z"
       ry="46.467018"
       rx="44.446712"
       cy="853.38049"
       cx="58.2439"
       id="ellipse3796"
       style="fill:#69cdff;fill-opacity:1;fill-rule:evenodd;stroke:none"
       sodipodi:cx="58.2439"
       sodipodi:cy="853.38049"
       sodipodi:rx="44.446712"
       sodipodi:ry="46.467018" />
    <ellipse
       transform="matrix(0.90029852,0,0,0.90029852,47.45681,-700.41846)"
       d="m 218.25529,1005.3134 c 0,25.663 -19.89947,46.467 -44.44671,46.467 -24.54724,0 -44.44671,-20.804 -44.44671,-46.467 0,-25.66301 19.89947,-46.467 44.44671,-46.467 24.54724,0 44.44671,20.80399 44.44671,46.467 z"
       ry="46.467018"
       rx="44.446712"
       cy="1005.3134"
       cx="173.80858"
       id="ellipse3798"
       style="fill:#69cdff;fill-opacity:1;fill-rule:evenodd;stroke:none"
       sodipodi:cx="173.80858"
       sodipodi:cy="1005.3134"
       sodipodi:rx="44.446712"
       sodipodi:ry="46.467018" />
    <ellipse
       transform="matrix(0.90029852,0,0,0.90029852,47.45681,-700.41846)"
       d="m 341.61831,848.9765 c 0,25.66303 -19.89947,46.46702 -44.44671,46.46702 -24.54724,0 -44.44671,-20.80399 -44.44671,-46.46702 0,-25.66302 19.89947,-46.46702 44.44671,-46.46702 24.54724,0 44.44671,20.804 44.44671,46.46702 z"
       ry="46.467018"
       rx="44.446712"
       cy="848.9765"
       cx="297.1716"
       id="ellipse3800"
       style="fill:#6accff;fill-opacity:1;fill-rule:evenodd;stroke:none"
       sodipodi:cx="297.1716"
       sodipodi:cy="848.9765"
       sodipodi:rx="44.446712"
       sodipodi:ry="46.467018" />
    <path
       sodipodi:nodetypes="ccc"
       inkscape:connector-curvature="0"
       id="path3802"
       d="M 78.216126,44.777558 207.35368,187.73307 309.80545,73.964598"
       style="fill:none;stroke:#69cdff;stroke-width:20.10000038;stroke-linecap:butt;stroke-linejoin:miter;stroke-miterlimit:4;stroke-opacity:1;stroke-dasharray:none" />
  </g>
  <g
     inkscape:label="Layer 1"
     inkscape:groupmode="layer"
     id="layer1"
     transform="translate(0,-786.61415)"
     style="display:inline"
     sodipodi:insensitive="true">
    <ellipse
       sodipodi:ry="46.467018"
       sodipodi:rx="44.446712"
       sodipodi:cy="853.38049"
       sodipodi:cx="58.2439"
       style="fill:#0093dd;fill-opacity:1;fill-rule:evenodd;stroke:none"
       id="path3336-6-1"
       cx="58.2439"
       cy="853.38049"
       rx="44.446712"
       ry="46.467018"
       d="m 102.69061,853.38049 c 0,25.66303 -19.899468,46.46702 -44.44671,46.46702 -24.547241,0 -44.446712,-20.80399 -44.446712,-46.46702 0,-25.66302 19.899471,-46.46701 44.446712,-46.46701 24.547242,0 44.44671,20.80399 44.44671,46.46701 z"
       transform="matrix(0.90029852,0,0,0.90029852,-10.6244,102.86407)" />
    <ellipse
       sodipodi:ry="46.467018"
       sodipodi:rx="44.446712"
       sodipodi:cy="1005.3134"
       sodipodi:cx="173.80858"
       style="fill:#0093dd;fill-opacity:1;fill-rule:evenodd;stroke:none"
       id="path3336-5"
       cx="173.80858"
       cy="1005.3134"
       rx="44.446712"
       ry="46.467018"
       d="m 218.25529,1005.3134 c 0,25.663 -19.89947,46.467 -44.44671,46.467 -24.54724,0 -44.44671,-20.804 -44.44671,-46.467 0,-25.66301 19.89947,-46.467 44.44671,-46.467 24.54724,0 44.44671,20.80399 44.44671,46.467 z"
       transform="matrix(0.90029852,0,0,0.90029852,-10.6244,102.86407)" />
    <ellipse
       sodipodi:ry="46.467018"
       sodipodi:rx="44.446712"
       sodipodi:cy="848.9765"
       sodipodi:cx="297.1716"
       style="fill:#0093dd;fill-opacity:1;fill-rule:evenodd;stroke:none"
       id="path3336-1-0"
       cx="297.1716"
       cy="848.9765"
       rx="44.446712"
       ry="46.467018"
       d="m 341.61831,848.9765 c 0,25.66303 -19.89947,46.46702 -44.44671,46.46702 -24.54724,0 -44.44671,-20.80399 -44.44671,-46.46702 0,-25.66302 19.89947,-46.46702 44.44671,-46.46702 24.54724,0 44.44671,20.804 44.44671,46.46702 z"
       transform="matrix(0.90029852,0,0,0.90029852,-10.6244,102.86407)" />
    <path
       style="fill:none;stroke:#0093dd;stroke-width:20.10000038;stroke-linecap:butt;stroke-linejoin:miter;stroke-miterlimit:4;stroke-opacity:1;stroke-dasharray:none"
       d="M 20.134916,848.06009 149.27248,991.0156 251.72425,877.24713"
       id="path4233"
       inkscape:connector-curvature="0"
       sodipodi:nodetypes="ccc" />
  </g>
</svg>
