<?xml version="1.0" encoding="UTF-8" standalone="no"?>
<!-- Generated by IcoMoon.io -->

<svg
   xmlns:dc="http://purl.org/dc/elements/1.1/"
   xmlns:cc="http://creativecommons.org/ns#"
   xmlns:rdf="http://www.w3.org/1999/02/22-rdf-syntax-ns#"
   xmlns:svg="http://www.w3.org/2000/svg"
   xmlns="http://www.w3.org/2000/svg"
   xmlns:sodipodi="http://sodipodi.sourceforge.net/DTD/sodipodi-0.dtd"
   xmlns:inkscape="http://www.inkscape.org/namespaces/inkscape"
   version="1.1"
   width="32"
   height="32"
   viewBox="0 0 32 32"
   id="svg3336"
   inkscape:version="0.91 r13725"
   sodipodi:docname="dse-result-icon.svg">
  <metadata
     id="metadata3344">
    <rdf:RDF>
      <cc:Work
         rdf:about="">
        <dc:format>image/svg+xml</dc:format>
        <dc:type
           rdf:resource="http://purl.org/dc/dcmitype/StillImage" />
      </cc:Work>
    </rdf:RDF>
  </metadata>
  <defs
     id="defs3342" />
  <sodipodi:namedview
     pagecolor="#ffffff"
     bordercolor="#666666"
     borderopacity="1"
     objecttolerance="10"
     gridtolerance="10"
     guidetolerance="10"
     inkscape:pageopacity="0"
     inkscape:pageshadow="2"
     inkscape:window-width="1221"
     inkscape:window-height="1129"
     id="namedview3340"
     showgrid="false"
     inkscape:zoom="6.3142425"
     inkscape:cx="-18.108596"
     inkscape:cy="37.511194"
     inkscape:window-x="789"
     inkscape:window-y="85"
     inkscape:window-maximized="0"
     inkscape:current-layer="svg3336" />
  <path
     d="M 0 0 L 0 32 L 32 32 L 32 28 L 4 28 L 4 0 L 0 0 z M 27.021484 8.0566406 C 27.006931 8.0696749 26.99218 8.0827387 26.980469 8.09375 C 26.995941 8.0813238 27.003907 8.0780533 27.013672 8.0683594 C 27.017063 8.0649945 27.018674 8.0604992 27.021484 8.0566406 z M 6.6855469 22.365234 C 6.6182703 22.411871 6.6234098 22.414721 6.6894531 22.388672 C 6.6876859 22.379702 6.6872497 22.374137 6.6855469 22.365234 z M 6.6972656 22.46875 C 6.6947256 22.45557 6.701055 22.494543 6.703125 22.507812 C 6.7045365 22.512329 6.7057007 22.516941 6.7070312 22.521484 C 6.704314 22.503728 6.7006495 22.486336 6.6972656 22.46875 z M 8.0527344 23.041016 C 8.0332984 23.012236 8.0994349 23.091728 8.1230469 23.117188 C 8.1245994 23.118837 8.1202124 23.112415 8.1230469 23.111328 C 8.1024023 23.085753 8.071743 23.069164 8.0527344 23.041016 z M 9.4511719 24.658203 C 9.4298724 24.662555 9.4195675 24.663987 9.4023438 24.667969 C 9.3962174 24.668957 9.3909049 24.672914 9.3847656 24.673828 C 9.4067606 24.668828 9.4732769 24.653683 9.4511719 24.658203 z M 7.8652344 25.755859 C 7.8502654 25.745259 7.8943043 25.775936 7.9101562 25.785156 C 7.9145544 25.787715 7.9193975 25.790442 7.9238281 25.792969 C 7.9257386 25.793705 7.9277751 25.794189 7.9296875 25.794922 C 7.907135 25.778647 7.9064289 25.78502 7.8652344 25.755859 z "
     id="path3338" />
  <path
     style="fill:none;fill-rule:evenodd;stroke:#000000;stroke-width:2.5;stroke-linecap:butt;stroke-linejoin:miter;stroke-miterlimit:4;stroke-dasharray:none;stroke-opacity:1"
     d="M 9.0581891,2.9475254 9.8756,14.577052 l 7.059457,7.579627 11.035045,1.114651"
     id="path4338"
     inkscape:connector-curvature="0"
     sodipodi:nodetypes="cccc" />
  <path
     style="fill:none;fill-rule:evenodd;stroke:#000000;stroke-width:2.5;stroke-linecap:butt;stroke-linejoin:miter;stroke-miterlimit:4;stroke-dasharray:none;stroke-opacity:1"
     d="m 16.885712,3.47501 1.932061,9.363069 9.325915,2.229302"
     id="path4340"
     inkscape:connector-curvature="0"
     sodipodi:nodetypes="ccc" />
  <circle
     style="fill:#000000;fill-rule:evenodd;stroke:#000000;stroke-width:1.58462703px;stroke-linecap:butt;stroke-linejoin:miter;stroke-opacity:1"
     id="path3356"
     cx="9.1063976"
     cy="3.8097613"
     r="2.2076864" />
  <circle
     style="fill:#000000;fill-rule:evenodd;stroke:#000000;stroke-width:1.58462703px;stroke-linecap:butt;stroke-linejoin:miter;stroke-opacity:1"
     id="path3356-1"
     cx="10.175408"
     cy="14.381102"
     r="2.2076864" />
  <circle
     style="fill:#000000;fill-rule:evenodd;stroke:#000000;stroke-width:1.58462703px;stroke-linecap:butt;stroke-linejoin:miter;stroke-opacity:1"
     id="path3356-9"
     cx="17.064596"
     cy="21.626625"
     r="2.2076864" />
  <circle
     style="fill:#000000;fill-rule:evenodd;stroke:#000000;stroke-width:1.58462703px;stroke-linecap:butt;stroke-linejoin:miter;stroke-opacity:1"
     id="path3356-8"
     cx="27.635937"
     cy="23.64587"
     r="2.2076864" />
  <circle
     style="fill:#000000;fill-rule:evenodd;stroke:#000000;stroke-width:1.58462703px;stroke-linecap:butt;stroke-linejoin:miter;stroke-opacity:1"
     id="path3356-3"
     cx="28.269424"
     cy="15.41052"
     r="2.2076864" />
  <circle
     style="fill:#000000;fill-rule:evenodd;stroke:#000000;stroke-width:1.58462703px;stroke-linecap:butt;stroke-linejoin:miter;stroke-opacity:1"
     id="path3356-4"
     cx="18.925468"
     cy="12.639009"
     r="2.2076864" />
  <circle
     style="fill:#000000;fill-rule:evenodd;stroke:#000000;stroke-width:1.58462703px;stroke-linecap:butt;stroke-linejoin:miter;stroke-opacity:1"
     id="path3356-47"
     cx="16.985411"
     cy="3.8097615"
     r="2.2076864" />
  <circle
     style="fill:#000000;fill-rule:evenodd;stroke:#000000;stroke-width:1.58462703px;stroke-linecap:butt;stroke-linejoin:miter;stroke-opacity:1"
     id="path3356-0"
     cx="25.181168"
     cy="6.1853437"
     r="2.2076864" />
</svg>
