<?xml version="1.0" encoding="UTF-8" standalone="no"?>
<!-- Created with Inkscape (http://www.inkscape.org/) -->

<svg
   xmlns:dc="http://purl.org/dc/elements/1.1/"
   xmlns:cc="http://creativecommons.org/ns#"
   xmlns:rdf="http://www.w3.org/1999/02/22-rdf-syntax-ns#"
   xmlns:svg="http://www.w3.org/2000/svg"
   xmlns="http://www.w3.org/2000/svg"
   xmlns:sodipodi="http://sodipodi.sourceforge.net/DTD/sodipodi-0.dtd"
   xmlns:inkscape="http://www.inkscape.org/namespaces/inkscape"
   id="svg2"
   version="1.1"
   inkscape:version="0.91 r13725"
   width="308"
   height="220"
   xml:space="preserve"
   sodipodi:docname="verified-rtt-logo.svg"><metadata
     id="metadata8"><rdf:RDF><cc:Work
         rdf:about=""><dc:format>image/svg+xml</dc:format><dc:type
           rdf:resource="http://purl.org/dc/dcmitype/StillImage" /><dc:title></dc:title></cc:Work></rdf:RDF></metadata><defs
     id="defs6" /><sodipodi:namedview
     pagecolor="#ffffff"
     bordercolor="#666666"
     borderopacity="1"
     objecttolerance="10"
     gridtolerance="10"
     guidetolerance="10"
     inkscape:pageopacity="0"
     inkscape:pageshadow="2"
     inkscape:window-width="1304"
     inkscape:window-height="746"
     id="namedview4"
     showgrid="false"
     inkscape:zoom="0.64"
     inkscape:cx="118.30645"
     inkscape:cy="320.51573"
     inkscape:window-x="54"
     inkscape:window-y="-8"
     inkscape:window-maximized="1"
     inkscape:current-layer="g10" /><g
     id="g10"
     inkscape:groupmode="layer"
     inkscape:label="xx"
     transform="matrix(1.25,0,0,-1.25,0,220)"><g
       id="g12"
       transform="matrix(0.1,0,0,0.1,-202.5,-342.5)"><path
         d="m 2360.16,4791.82 85.21,-389.11 757.62,640.45"
         style="fill:none;stroke:#231f20;stroke-width:90;stroke-linecap:square;stroke-linejoin:miter;stroke-miterlimit:2.61310005;stroke-dasharray:none;stroke-opacity:1"
         id="path14"
         inkscape:connector-curvature="0" /><path
         d="m 2932.22,4276.54 c -9.24,-25.55 -21.2,-41.43 -35.76,-47.58 -14.63,-6.11 -35.64,-4.17 -62.98,5.73 l -108.98,39.49 c -27.27,9.89 -44.52,21.72 -51.8,35.63 -7.29,13.9 -6.18,33.8 3.17,59.67 l 59.68,164.59 c 9.32,25.7 21.2,41.59 35.72,47.67 14.53,6.09 35.39,4.2 62.64,-5.69 l 108.97,-39.49 c 27.35,-9.93 44.7,-21.97 51.98,-36.11 7.2,-14.16 6.24,-33.91 -2.96,-59.3 l -32.94,-90.87 -143.84,52.12 -22.33,-61.58 c -2.81,-7.75 -3.67,-14 -2.5,-18.66 1.13,-4.69 4.29,-7.95 9.54,-9.86 5.48,-1.98 10.05,-1.6 13.87,1.11 3.73,2.71 7.03,8.16 9.97,16.23 l 13.99,38.61 112.96,-40.92 -18.4,-50.79 z m -89.77,204.22 -8.65,-23.88 33.2,-12.04 8.66,23.9 c 3.23,8.84 4.24,15.82 3.04,20.8 -1.2,5.02 -4.77,8.63 -10.72,10.78 -5.73,2.1 -10.49,1.6 -14.54,-1.45 -4.03,-3.06 -7.72,-9.08 -10.99,-18.11 z m 95.32,-282.81 108.74,299.97 107.65,-39 -6.81,-18.81 c 13.28,3.16 25.74,4.5 37.46,4.05 11.64,-0.41 23.48,-2.73 35.21,-7 24.13,-8.75 39.93,-22.89 47.2,-42.46 7.31,-19.49 5.78,-43.49 -4.56,-72 l -12.14,-33.45 -105.37,38.19 10.23,28.22 c 2.9,7.99 3.75,14.23 2.6,18.91 -1.14,4.66 -4.37,7.95 -9.55,9.84 -5.48,1.98 -10.13,1.63 -13.9,-1.18 -3.75,-2.8 -7.13,-8.21 -10.09,-16.36 l -75.81,-209.1 -110.86,40.18 z m 387.64,222.81 21.97,60.56 110.86,-40.17 -21.96,-60.57 -110.87,40.18 z m -116.39,-321.13 108.72,299.99 110.87,-40.18 -108.74,-299.99 -110.85,40.18 z m 270.39,256.19 c 9.32,25.7 21.2,41.59 35.73,47.66 14.52,6.08 35.46,4.17 62.81,-5.73 l 77.17,-27.96 -20.66,-56.97 -13.08,4.74 c -10.12,3.66 -17.53,4.94 -22.32,3.93 -4.82,-1.01 -8.33,-4.6 -10.54,-10.72 l -2.98,-8.22 39.94,-14.5 -20.77,-57.34 -39.97,14.5 -87.95,-242.65 -110.86,40.18 87.96,242.63 -28.68,10.41 20.79,57.34 28.68,-10.39 4.73,13.09 z m 173.66,-53.81 21.95,60.56 110.85,-40.19 -21.96,-60.58 -110.84,40.21 z m -116.43,-321.15 108.75,299.99 110.86,-40.18 -108.74,-299.98 -110.87,40.17 z m 422.22,-76.46 c -9.25,-25.54 -21.22,-41.41 -35.75,-47.56 -14.63,-6.13 -35.65,-4.19 -63,5.71 l -108.97,39.51 c -27.27,9.88 -44.51,21.73 -51.79,35.62 -7.3,13.88 -6.2,33.79 3.17,59.64 l 59.67,164.6 c 9.31,25.71 21.2,41.61 35.73,47.69 14.52,6.08 35.38,4.19 62.65,-5.7 l 108.97,-39.5 c 27.34,-9.91 44.69,-21.96 51.97,-36.11 7.2,-14.13 6.23,-33.91 -2.97,-59.29 l -32.95,-90.89 -143.84,52.16 -22.32,-61.6 c -2.82,-7.75 -3.66,-14 -2.51,-18.66 1.13,-4.69 4.29,-7.95 9.54,-9.85 5.49,-1.99 10.06,-1.6 13.87,1.08 3.73,2.73 7.05,8.19 9.97,16.26 l 13.99,38.6 112.99,-40.95 -18.42,-50.76 z m -89.76,204.24 -8.67,-23.89 33.23,-12.05 8.65,23.89 c 3.22,8.85 4.24,15.85 3.03,20.8 -1.2,5.06 -4.76,8.65 -10.72,10.81 -5.72,2.07 -10.5,1.6 -14.54,-1.47 -4.02,-3.06 -7.72,-9.07 -10.98,-18.09 z m 267.28,-242.5 42.9,118.37 c 2.89,7.99 3.74,14.24 2.6,18.91 -1.15,4.67 -4.47,7.99 -9.79,9.94 -5.17,1.85 -9.75,1.4 -13.65,-1.43 -3.86,-2.89 -7.21,-8.22 -10.1,-16.22 l -42.92,-118.37 c -2.83,-7.85 -3.66,-14.01 -2.51,-18.69 1.15,-4.65 4.38,-7.95 9.55,-9.83 5.48,-1.98 10.13,-1.62 13.85,1.1 3.75,2.72 7.1,8.05 10.07,16.22 z m 216.32,250.77 -138.35,-381.7 -107.19,38.86 7,19.27 c -13.86,-3.23 -27.04,-4.66 -39.69,-4.05 -12.55,0.58 -25.15,3.18 -37.7,7.73 -24.9,9.02 -41.31,23.47 -49.12,43.24 -7.79,19.85 -6.48,44.01 3.89,72.6 l 46.69,128.8 c 10.32,28.44 24.75,47.75 43.31,57.88 18.58,10.18 40.41,10.69 65.47,1.61 12.15,-4.4 22.87,-10.07 32.32,-16.95 9.48,-6.88 18.36,-15.43 26.76,-25.74 l 35.75,98.64 110.86,-40.19"
         style="fill:#231f20;fill-opacity:1;fill-rule:evenodd;stroke:none"
         id="path16"
         inkscape:connector-curvature="0" /><path
         d="m 2932.22,4276.54 c -9.24,-25.55 -21.2,-41.43 -35.76,-47.58 -14.63,-6.11 -35.64,-4.17 -62.98,5.73 l -108.98,39.49 c -27.27,9.89 -44.52,21.72 -51.8,35.63 -7.29,13.9 -6.18,33.8 3.17,59.67 l 59.68,164.59 c 9.32,25.7 21.2,41.59 35.72,47.67 14.53,6.09 35.39,4.2 62.64,-5.69 l 108.97,-39.49 c 27.35,-9.93 44.7,-21.97 51.98,-36.11 7.2,-14.16 6.24,-33.91 -2.96,-59.3 l -32.94,-90.87 -143.84,52.12 -22.33,-61.58 c -2.81,-7.75 -3.67,-14 -2.5,-18.66 1.13,-4.69 4.29,-7.95 9.54,-9.86 5.48,-1.98 10.05,-1.6 13.87,1.11 3.73,2.71 7.03,8.16 9.97,16.23 l 13.99,38.61 112.96,-40.92 -18.4,-50.79 z m -89.77,204.22 -8.65,-23.88 33.2,-12.04 8.66,23.9 c 3.23,8.84 4.24,15.82 3.04,20.8 -1.2,5.02 -4.77,8.63 -10.72,10.78 -5.73,2.1 -10.49,1.6 -14.54,-1.45 -4.03,-3.06 -7.72,-9.08 -10.99,-18.11 z m 95.32,-282.81 108.74,299.97 107.65,-39 -6.81,-18.81 c 13.28,3.16 25.74,4.5 37.46,4.05 11.64,-0.41 23.48,-2.73 35.21,-7 24.13,-8.75 39.93,-22.89 47.2,-42.46 7.31,-19.49 5.78,-43.49 -4.56,-72 l -12.14,-33.45 -105.37,38.19 10.23,28.22 c 2.9,7.99 3.75,14.23 2.6,18.91 -1.14,4.66 -4.37,7.95 -9.55,9.84 -5.48,1.98 -10.13,1.63 -13.9,-1.18 -3.75,-2.8 -7.13,-8.21 -10.09,-16.36 l -75.81,-209.1 -110.86,40.18 z m 387.64,222.81 21.97,60.56 110.86,-40.17 -21.96,-60.57 -110.87,40.18 z m -116.39,-321.13 108.72,299.99 110.87,-40.18 -108.74,-299.99 -110.85,40.18 z m 270.39,256.19 c 9.32,25.7 21.2,41.59 35.73,47.66 14.52,6.08 35.46,4.17 62.81,-5.73 l 77.17,-27.96 -20.66,-56.97 -13.08,4.74 c -10.12,3.66 -17.53,4.94 -22.32,3.93 -4.82,-1.01 -8.33,-4.6 -10.54,-10.72 l -2.98,-8.22 39.94,-14.5 -20.77,-57.34 -39.97,14.5 -87.95,-242.65 -110.86,40.18 87.96,242.63 -28.68,10.41 20.79,57.34 28.68,-10.39 4.73,13.09 z m 173.66,-53.81 21.95,60.56 110.85,-40.19 -21.96,-60.58 -110.84,40.21 z m -116.43,-321.15 108.75,299.99 110.86,-40.18 -108.74,-299.98 -110.87,40.17 z m 422.22,-76.46 c -9.25,-25.54 -21.22,-41.41 -35.75,-47.56 -14.63,-6.13 -35.65,-4.19 -63,5.71 l -108.97,39.51 c -27.27,9.88 -44.51,21.73 -51.79,35.62 -7.3,13.88 -6.2,33.79 3.17,59.64 l 59.67,164.6 c 9.31,25.71 21.2,41.61 35.73,47.69 14.52,6.08 35.38,4.19 62.65,-5.7 l 108.97,-39.5 c 27.34,-9.91 44.69,-21.96 51.97,-36.11 7.2,-14.13 6.23,-33.91 -2.97,-59.29 l -32.95,-90.89 -143.84,52.16 -22.32,-61.6 c -2.82,-7.75 -3.66,-14 -2.51,-18.66 1.13,-4.69 4.29,-7.95 9.54,-9.85 5.49,-1.99 10.06,-1.6 13.87,1.08 3.73,2.73 7.05,8.19 9.97,16.26 l 13.99,38.6 112.99,-40.95 -18.42,-50.76 z m -89.76,204.24 -8.67,-23.89 33.23,-12.05 8.65,23.89 c 3.22,8.85 4.24,15.85 3.03,20.8 -1.2,5.06 -4.76,8.65 -10.72,10.81 -5.72,2.07 -10.5,1.6 -14.54,-1.47 -4.02,-3.06 -7.72,-9.07 -10.98,-18.09 z m 267.28,-242.5 42.9,118.37 c 2.89,7.99 3.74,14.24 2.6,18.91 -1.15,4.67 -4.47,7.99 -9.79,9.94 -5.17,1.85 -9.75,1.4 -13.65,-1.43 -3.86,-2.89 -7.21,-8.22 -10.1,-16.22 l -42.92,-118.37 c -2.83,-7.85 -3.66,-14.01 -2.51,-18.69 1.15,-4.65 4.38,-7.95 9.55,-9.83 5.48,-1.98 10.13,-1.62 13.85,1.1 3.75,2.72 7.1,8.05 10.07,16.22 z m 216.32,250.77 -138.35,-381.7 -107.19,38.86 7,19.27 c -13.86,-3.23 -27.04,-4.66 -39.69,-4.05 -12.55,0.58 -25.15,3.18 -37.7,7.73 -24.9,9.02 -41.31,23.47 -49.12,43.24 -7.79,19.85 -6.48,44.01 3.89,72.6 l 46.69,128.8 c 10.32,28.44 24.75,47.75 43.31,57.88 18.58,10.18 40.41,10.69 65.47,1.61 12.15,-4.4 22.87,-10.07 32.32,-16.95 9.48,-6.88 18.36,-15.43 26.76,-25.74 l 35.75,98.64 110.86,-40.19 z"
         style="fill:none;stroke:#231f20;stroke-width:7.19999981;stroke-linecap:butt;stroke-linejoin:miter;stroke-miterlimit:2.61310005;stroke-dasharray:none;stroke-opacity:1"
         id="path18"
         inkscape:connector-curvature="0" /><path
         d="m 4444.12,4138.06 -1531.52,555.15 112.97,94.73 1462.01,-529.96 -43.46,-119.92"
         style="fill:#ed1c24;fill-opacity:1;fill-rule:evenodd;stroke:none"
         id="path20"
         inkscape:connector-curvature="0" /><path
         d="m 2339.11,5036.77 517.75,-187.66 -111.44,-95.3 -449.77,163.04 43.46,119.92"
         style="fill:#ed1c24;fill-opacity:1;fill-rule:evenodd;stroke:none"
         id="path22"
         inkscape:connector-curvature="0" /><path
         d="m 2103.87,4380.43 2146.11,-777.93 -42.54,-117.36 -2146.11,777.93 42.54,117.36"
         style="fill:#ed1c24;fill-opacity:1;fill-rule:evenodd;stroke:none"
         id="path24"
         inkscape:connector-curvature="0" /></g></g></svg>